<mxfile host="app.diagrams.net" agent="Mozilla/5.0 (Windows NT 10.0; Win64; x64) AppleWebKit/537.36 (KHTML, like Gecko) Chrome/135.0.0.0 Safari/537.36" version="26.2.13">
  <diagram name="Страница — 1" id="A_yCoXrLZeD3sIRPQnrd">
    <mxGraphModel dx="720" dy="397" grid="1" gridSize="10" guides="1" tooltips="1" connect="1" arrows="1" fold="1" page="1" pageScale="1" pageWidth="827" pageHeight="1169" math="0" shadow="0">
      <root>
        <mxCell id="0" />
        <mxCell id="1" parent="0" />
        <mxCell id="D8TYEXM2uY8Epjha6PhA-8" value="" style="edgeStyle=orthogonalEdgeStyle;rounded=0;orthogonalLoop=1;jettySize=auto;html=1;" edge="1" parent="1" source="D8TYEXM2uY8Epjha6PhA-1" target="D8TYEXM2uY8Epjha6PhA-6">
          <mxGeometry relative="1" as="geometry">
            <Array as="points">
              <mxPoint x="240" y="210" />
              <mxPoint x="240" y="210" />
            </Array>
          </mxGeometry>
        </mxCell>
        <mxCell id="D8TYEXM2uY8Epjha6PhA-9" value="1" style="edgeLabel;html=1;align=center;verticalAlign=middle;resizable=0;points=[];" vertex="1" connectable="0" parent="D8TYEXM2uY8Epjha6PhA-8">
          <mxGeometry x="-0.888" relative="1" as="geometry">
            <mxPoint x="6" as="offset" />
          </mxGeometry>
        </mxCell>
        <mxCell id="D8TYEXM2uY8Epjha6PhA-10" value="0...*" style="edgeLabel;html=1;align=center;verticalAlign=middle;resizable=0;points=[];" vertex="1" connectable="0" parent="D8TYEXM2uY8Epjha6PhA-8">
          <mxGeometry x="0.674" relative="1" as="geometry">
            <mxPoint x="-7" as="offset" />
          </mxGeometry>
        </mxCell>
        <mxCell id="D8TYEXM2uY8Epjha6PhA-1" value="Пользователь" style="swimlane;fontStyle=1;align=center;verticalAlign=top;childLayout=stackLayout;horizontal=1;startSize=26;horizontalStack=0;resizeParent=1;resizeParentMax=0;resizeLast=0;collapsible=1;marginBottom=0;whiteSpace=wrap;html=1;" vertex="1" parent="1">
          <mxGeometry x="40" y="160" width="160" height="100" as="geometry" />
        </mxCell>
        <mxCell id="D8TYEXM2uY8Epjha6PhA-2" value="id: int&lt;div&gt;ФИО: string&lt;/div&gt;&lt;div&gt;email: string&lt;/div&gt;&lt;div&gt;роль: enum&lt;/div&gt;" style="text;strokeColor=none;fillColor=none;align=left;verticalAlign=top;spacingLeft=4;spacingRight=4;overflow=hidden;rotatable=0;points=[[0,0.5],[1,0.5]];portConstraint=eastwest;whiteSpace=wrap;html=1;" vertex="1" parent="D8TYEXM2uY8Epjha6PhA-1">
          <mxGeometry y="26" width="160" height="74" as="geometry" />
        </mxCell>
        <mxCell id="D8TYEXM2uY8Epjha6PhA-17" value="" style="edgeStyle=orthogonalEdgeStyle;rounded=0;orthogonalLoop=1;jettySize=auto;html=1;exitX=1;exitY=0.262;exitDx=0;exitDy=0;exitPerimeter=0;" edge="1" parent="1" source="D8TYEXM2uY8Epjha6PhA-7" target="D8TYEXM2uY8Epjha6PhA-15">
          <mxGeometry relative="1" as="geometry">
            <Array as="points">
              <mxPoint x="500" y="216" />
              <mxPoint x="500" y="216" />
            </Array>
          </mxGeometry>
        </mxCell>
        <mxCell id="D8TYEXM2uY8Epjha6PhA-18" value="1" style="edgeLabel;html=1;align=center;verticalAlign=middle;resizable=0;points=[];" vertex="1" connectable="0" parent="D8TYEXM2uY8Epjha6PhA-17">
          <mxGeometry x="-0.805" y="-1" relative="1" as="geometry">
            <mxPoint x="8" as="offset" />
          </mxGeometry>
        </mxCell>
        <mxCell id="D8TYEXM2uY8Epjha6PhA-52" value="1" style="edgeLabel;html=1;align=center;verticalAlign=middle;resizable=0;points=[];" vertex="1" connectable="0" parent="D8TYEXM2uY8Epjha6PhA-17">
          <mxGeometry x="0.6222" relative="1" as="geometry">
            <mxPoint x="-4" as="offset" />
          </mxGeometry>
        </mxCell>
        <mxCell id="D8TYEXM2uY8Epjha6PhA-6" value="Заявка" style="swimlane;fontStyle=1;align=center;verticalAlign=top;childLayout=stackLayout;horizontal=1;startSize=26;horizontalStack=0;resizeParent=1;resizeParentMax=0;resizeLast=0;collapsible=1;marginBottom=0;whiteSpace=wrap;html=1;" vertex="1" parent="1">
          <mxGeometry x="280" y="160" width="160" height="140" as="geometry" />
        </mxCell>
        <mxCell id="D8TYEXM2uY8Epjha6PhA-15" value="Категория" style="swimlane;fontStyle=1;align=center;verticalAlign=top;childLayout=stackLayout;horizontal=1;startSize=26;horizontalStack=0;resizeParent=1;resizeParentMax=0;resizeLast=0;collapsible=1;marginBottom=0;whiteSpace=wrap;html=1;" vertex="1" parent="1">
          <mxGeometry x="520" y="160" width="160" height="70" as="geometry" />
        </mxCell>
        <mxCell id="D8TYEXM2uY8Epjha6PhA-16" value="id: int&lt;div&gt;название: String&lt;/div&gt;" style="text;strokeColor=none;fillColor=none;align=left;verticalAlign=top;spacingLeft=4;spacingRight=4;overflow=hidden;rotatable=0;points=[[0,0.5],[1,0.5]];portConstraint=eastwest;whiteSpace=wrap;html=1;" vertex="1" parent="D8TYEXM2uY8Epjha6PhA-15">
          <mxGeometry y="26" width="160" height="44" as="geometry" />
        </mxCell>
        <mxCell id="D8TYEXM2uY8Epjha6PhA-25" value="Фотоотчет" style="swimlane;fontStyle=1;align=center;verticalAlign=top;childLayout=stackLayout;horizontal=1;startSize=26;horizontalStack=0;resizeParent=1;resizeParentMax=0;resizeLast=0;collapsible=1;marginBottom=0;whiteSpace=wrap;html=1;" vertex="1" parent="1">
          <mxGeometry x="520" y="260" width="160" height="80" as="geometry" />
        </mxCell>
        <mxCell id="D8TYEXM2uY8Epjha6PhA-26" value="id: int&lt;div&gt;фотоURL: string&lt;/div&gt;&lt;div&gt;дата: datetime&lt;/div&gt;" style="text;strokeColor=none;fillColor=none;align=left;verticalAlign=top;spacingLeft=4;spacingRight=4;overflow=hidden;rotatable=0;points=[[0,0.5],[1,0.5]];portConstraint=eastwest;whiteSpace=wrap;html=1;" vertex="1" parent="D8TYEXM2uY8Epjha6PhA-25">
          <mxGeometry y="26" width="160" height="54" as="geometry" />
        </mxCell>
        <mxCell id="D8TYEXM2uY8Epjha6PhA-27" value="Комментарий" style="swimlane;fontStyle=1;align=center;verticalAlign=top;childLayout=stackLayout;horizontal=1;startSize=26;horizontalStack=0;resizeParent=1;resizeParentMax=0;resizeLast=0;collapsible=1;marginBottom=0;whiteSpace=wrap;html=1;" vertex="1" parent="1">
          <mxGeometry x="30" y="350" width="160" height="80" as="geometry" />
        </mxCell>
        <mxCell id="D8TYEXM2uY8Epjha6PhA-28" value="id: int&lt;div&gt;текст: string&lt;/div&gt;&lt;div&gt;дата: datetime&lt;/div&gt;" style="text;strokeColor=none;fillColor=none;align=left;verticalAlign=top;spacingLeft=4;spacingRight=4;overflow=hidden;rotatable=0;points=[[0,0.5],[1,0.5]];portConstraint=eastwest;whiteSpace=wrap;html=1;" vertex="1" parent="D8TYEXM2uY8Epjha6PhA-27">
          <mxGeometry y="26" width="160" height="54" as="geometry" />
        </mxCell>
        <mxCell id="D8TYEXM2uY8Epjha6PhA-29" value="ИсторияИзменений" style="swimlane;fontStyle=1;align=center;verticalAlign=top;childLayout=stackLayout;horizontal=1;startSize=26;horizontalStack=0;resizeParent=1;resizeParentMax=0;resizeLast=0;collapsible=1;marginBottom=0;whiteSpace=wrap;html=1;" vertex="1" parent="1">
          <mxGeometry x="210" y="350" width="160" height="80" as="geometry" />
        </mxCell>
        <mxCell id="D8TYEXM2uY8Epjha6PhA-30" value="id: int&lt;div&gt;описание: string&lt;/div&gt;&lt;div&gt;дата: datetime&lt;/div&gt;" style="text;strokeColor=none;fillColor=none;align=left;verticalAlign=top;spacingLeft=4;spacingRight=4;overflow=hidden;rotatable=0;points=[[0,0.5],[1,0.5]];portConstraint=eastwest;whiteSpace=wrap;html=1;" vertex="1" parent="D8TYEXM2uY8Epjha6PhA-29">
          <mxGeometry y="26" width="160" height="54" as="geometry" />
        </mxCell>
        <mxCell id="D8TYEXM2uY8Epjha6PhA-31" style="edgeStyle=orthogonalEdgeStyle;rounded=0;orthogonalLoop=1;jettySize=auto;html=1;exitX=1;exitY=0.5;exitDx=0;exitDy=0;entryX=0;entryY=0.5;entryDx=0;entryDy=0;" edge="1" parent="1" source="D8TYEXM2uY8Epjha6PhA-7" target="D8TYEXM2uY8Epjha6PhA-26">
          <mxGeometry relative="1" as="geometry" />
        </mxCell>
        <mxCell id="D8TYEXM2uY8Epjha6PhA-33" value="0...*" style="edgeLabel;html=1;align=center;verticalAlign=middle;resizable=0;points=[];" vertex="1" connectable="0" parent="D8TYEXM2uY8Epjha6PhA-31">
          <mxGeometry x="0.7568" relative="1" as="geometry">
            <mxPoint x="-22" y="-13" as="offset" />
          </mxGeometry>
        </mxCell>
        <mxCell id="D8TYEXM2uY8Epjha6PhA-34" style="edgeStyle=orthogonalEdgeStyle;rounded=0;orthogonalLoop=1;jettySize=auto;html=1;exitX=0.002;exitY=0.742;exitDx=0;exitDy=0;entryX=0.75;entryY=0;entryDx=0;entryDy=0;exitPerimeter=0;" edge="1" parent="1" source="D8TYEXM2uY8Epjha6PhA-7" target="D8TYEXM2uY8Epjha6PhA-27">
          <mxGeometry relative="1" as="geometry">
            <Array as="points">
              <mxPoint x="150" y="271" />
            </Array>
          </mxGeometry>
        </mxCell>
        <mxCell id="D8TYEXM2uY8Epjha6PhA-35" value="1" style="edgeLabel;html=1;align=center;verticalAlign=middle;resizable=0;points=[];" vertex="1" connectable="0" parent="D8TYEXM2uY8Epjha6PhA-34">
          <mxGeometry x="-0.878" y="-1" relative="1" as="geometry">
            <mxPoint x="2" as="offset" />
          </mxGeometry>
        </mxCell>
        <mxCell id="D8TYEXM2uY8Epjha6PhA-36" value="0...*" style="edgeLabel;html=1;align=center;verticalAlign=middle;resizable=0;points=[];" vertex="1" connectable="0" parent="D8TYEXM2uY8Epjha6PhA-34">
          <mxGeometry x="0.7508" y="-1" relative="1" as="geometry">
            <mxPoint y="-4" as="offset" />
          </mxGeometry>
        </mxCell>
        <mxCell id="D8TYEXM2uY8Epjha6PhA-37" style="edgeStyle=orthogonalEdgeStyle;rounded=0;orthogonalLoop=1;jettySize=auto;html=1;exitX=1;exitY=0.5;exitDx=0;exitDy=0;entryX=0.5;entryY=0;entryDx=0;entryDy=0;" edge="1" parent="1" source="D8TYEXM2uY8Epjha6PhA-7" target="D8TYEXM2uY8Epjha6PhA-29">
          <mxGeometry relative="1" as="geometry">
            <Array as="points">
              <mxPoint x="460" y="243" />
              <mxPoint x="460" y="320" />
              <mxPoint x="290" y="320" />
            </Array>
          </mxGeometry>
        </mxCell>
        <mxCell id="D8TYEXM2uY8Epjha6PhA-41" value="0...*" style="edgeLabel;html=1;align=center;verticalAlign=middle;resizable=0;points=[];" vertex="1" connectable="0" parent="D8TYEXM2uY8Epjha6PhA-37">
          <mxGeometry x="0.8487" relative="1" as="geometry">
            <mxPoint x="20" y="-7" as="offset" />
          </mxGeometry>
        </mxCell>
        <mxCell id="D8TYEXM2uY8Epjha6PhA-42" value="1" style="edgeLabel;html=1;align=center;verticalAlign=middle;resizable=0;points=[];" vertex="1" connectable="0" parent="D8TYEXM2uY8Epjha6PhA-37">
          <mxGeometry x="-0.892" y="-1" relative="1" as="geometry">
            <mxPoint as="offset" />
          </mxGeometry>
        </mxCell>
        <mxCell id="D8TYEXM2uY8Epjha6PhA-7" value="id: int&lt;div&gt;заголовок: string&lt;/div&gt;&lt;div&gt;описание: text&lt;/div&gt;&lt;div&gt;срочность: enum&lt;/div&gt;&lt;div&gt;статус: enum&lt;/div&gt;&lt;div&gt;датаСоздания: datetime&lt;/div&gt;&lt;div&gt;датаОбновления: datetime&lt;/div&gt;&lt;div&gt;&lt;span style=&quot;color: rgba(0, 0, 0, 0); font-family: monospace; font-size: 0px; text-wrap-mode: nowrap;&quot;&gt;%3CmxGraphModel%3E%3Croot%3E%3CmxCell%20id%3D%220%22%2F%3E%3CmxCell%20id%3D%221%22%20parent%3D%220%22%2F%3E%3CmxCell%20id%3D%222%22%20value%3D%22%D0%A4%D0%BE%D1%82%D0%BE%D0%BE%D1%82%D1%87%D0%B5%D1%82%22%20style%3D%22swimlane%3BfontStyle%3D1%3Balign%3Dcenter%3BverticalAlign%3Dtop%3BchildLayout%3DstackLayout%3Bhorizontal%3D1%3BstartSize%3D26%3BhorizontalStack%3D0%3BresizeParent%3D1%3BresizeParentMax%3D0%3BresizeLast%3D0%3Bcollapsible%3D1%3BmarginBottom%3D0%3BwhiteSpace%3Dwrap%3Bhtml%3D1%3B%22%20vertex%3D%221%22%20parent%3D%221%22%3E%3CmxGeometry%20x%3D%22520%22%20y%3D%22260%22%20width%3D%22160%22%20height%3D%2280%22%20as%3D%22geometry%22%2F%3E%3C%2FmxCell%3E%3CmxCell%20id%3D%223%22%20value%3D%22id%3A%20int%26lt%3Bdiv%26gt%3B%D1%84%D0%BE%D1%82%D0%BEURL%3A%20string%26lt%3B%2Fdiv%26gt%3B%26lt%3Bdiv%26gt%3B%D0%B4%D0%B0%D1%82%D0%B0%3A%20datetime%26lt%3B%2Fdiv%26gt%3B%22%20style%3D%22text%3BstrokeColor%3Dnone%3BfillColor%3Dnone%3Balign%3Dleft%3BverticalAlign%3Dtop%3BspacingLeft%3D4%3BspacingRight%3D4%3Boverflow%3Dhidden%3Brotatable%3D0%3Bpoints%3D%5B%5B0%2C0.5%5D%2C%5B1%2C0.5%5D%5D%3BportConstraint%3Deastwest%3BwhiteSpace%3Dwrap%3Bhtml%3D1%3B%22%20vertex%3D%221%22%20parent%3D%222%22%3E%3CmxGeometry%20y%3D%2226%22%20width%3D%22160%22%20height%3D%2254%22%20as%3D%22geometry%22%2F%3E%3C%2FmxCell%3E%3C%2Froot%3E%3C%2FmxGraphModel%3E&lt;/span&gt;&lt;/div&gt;" style="text;strokeColor=none;fillColor=none;align=left;verticalAlign=top;spacingLeft=4;spacingRight=4;overflow=hidden;rotatable=0;points=[[0,0.5],[1,0.5]];portConstraint=eastwest;whiteSpace=wrap;html=1;" vertex="1" parent="1">
          <mxGeometry x="280" y="186" width="160" height="114" as="geometry" />
        </mxCell>
        <mxCell id="D8TYEXM2uY8Epjha6PhA-38" style="edgeStyle=orthogonalEdgeStyle;rounded=0;orthogonalLoop=1;jettySize=auto;html=1;exitX=0;exitY=0.5;exitDx=0;exitDy=0;entryX=0.5;entryY=0;entryDx=0;entryDy=0;" edge="1" parent="1" source="D8TYEXM2uY8Epjha6PhA-2" target="D8TYEXM2uY8Epjha6PhA-27">
          <mxGeometry relative="1" as="geometry" />
        </mxCell>
        <mxCell id="D8TYEXM2uY8Epjha6PhA-39" value="0...*" style="edgeLabel;html=1;align=center;verticalAlign=middle;resizable=0;points=[];" vertex="1" connectable="0" parent="D8TYEXM2uY8Epjha6PhA-38">
          <mxGeometry x="0.9127" relative="1" as="geometry">
            <mxPoint y="-20" as="offset" />
          </mxGeometry>
        </mxCell>
        <mxCell id="D8TYEXM2uY8Epjha6PhA-40" value="1" style="edgeLabel;html=1;align=center;verticalAlign=middle;resizable=0;points=[];" vertex="1" connectable="0" parent="D8TYEXM2uY8Epjha6PhA-38">
          <mxGeometry x="-0.9513" y="-1" relative="1" as="geometry">
            <mxPoint as="offset" />
          </mxGeometry>
        </mxCell>
        <mxCell id="D8TYEXM2uY8Epjha6PhA-43" style="edgeStyle=orthogonalEdgeStyle;rounded=0;orthogonalLoop=1;jettySize=auto;html=1;exitX=1;exitY=0.5;exitDx=0;exitDy=0;entryX=0.25;entryY=0;entryDx=0;entryDy=0;" edge="1" parent="1" source="D8TYEXM2uY8Epjha6PhA-2" target="D8TYEXM2uY8Epjha6PhA-29">
          <mxGeometry relative="1" as="geometry" />
        </mxCell>
        <mxCell id="D8TYEXM2uY8Epjha6PhA-44" value="0...*" style="edgeLabel;html=1;align=center;verticalAlign=middle;resizable=0;points=[];" vertex="1" connectable="0" parent="D8TYEXM2uY8Epjha6PhA-43">
          <mxGeometry x="0.7695" relative="1" as="geometry">
            <mxPoint y="-10" as="offset" />
          </mxGeometry>
        </mxCell>
        <mxCell id="D8TYEXM2uY8Epjha6PhA-45" value="1" style="edgeLabel;html=1;align=center;verticalAlign=middle;resizable=0;points=[];" vertex="1" connectable="0" parent="D8TYEXM2uY8Epjha6PhA-43">
          <mxGeometry x="-0.9403" relative="1" as="geometry">
            <mxPoint x="5" as="offset" />
          </mxGeometry>
        </mxCell>
        <mxCell id="D8TYEXM2uY8Epjha6PhA-46" style="edgeStyle=orthogonalEdgeStyle;rounded=0;orthogonalLoop=1;jettySize=auto;html=1;exitX=0.997;exitY=0.11;exitDx=0;exitDy=0;entryX=1;entryY=0.5;entryDx=0;entryDy=0;exitPerimeter=0;" edge="1" parent="1" source="D8TYEXM2uY8Epjha6PhA-2" target="D8TYEXM2uY8Epjha6PhA-26">
          <mxGeometry relative="1" as="geometry">
            <mxPoint x="240" y="130" as="sourcePoint" />
            <Array as="points">
              <mxPoint x="220" y="194" />
              <mxPoint x="220" y="140" />
              <mxPoint x="700" y="140" />
              <mxPoint x="700" y="313" />
            </Array>
          </mxGeometry>
        </mxCell>
        <mxCell id="D8TYEXM2uY8Epjha6PhA-47" value="1" style="edgeLabel;html=1;align=center;verticalAlign=middle;resizable=0;points=[];" vertex="1" connectable="0" parent="D8TYEXM2uY8Epjha6PhA-46">
          <mxGeometry x="-0.984" relative="1" as="geometry">
            <mxPoint x="5" as="offset" />
          </mxGeometry>
        </mxCell>
        <mxCell id="D8TYEXM2uY8Epjha6PhA-48" value="0...*" style="edgeLabel;html=1;align=center;verticalAlign=middle;resizable=0;points=[];" vertex="1" connectable="0" parent="D8TYEXM2uY8Epjha6PhA-46">
          <mxGeometry x="0.9184" relative="1" as="geometry">
            <mxPoint as="offset" />
          </mxGeometry>
        </mxCell>
        <mxCell id="D8TYEXM2uY8Epjha6PhA-49" style="edgeStyle=orthogonalEdgeStyle;rounded=0;orthogonalLoop=1;jettySize=auto;html=1;exitX=0;exitY=0.5;exitDx=0;exitDy=0;" edge="1" parent="1" source="D8TYEXM2uY8Epjha6PhA-7">
          <mxGeometry relative="1" as="geometry">
            <mxPoint x="200" y="243" as="targetPoint" />
          </mxGeometry>
        </mxCell>
        <mxCell id="D8TYEXM2uY8Epjha6PhA-50" value="1" style="edgeLabel;html=1;align=center;verticalAlign=middle;resizable=0;points=[];" vertex="1" connectable="0" parent="D8TYEXM2uY8Epjha6PhA-49">
          <mxGeometry x="-0.8686" relative="1" as="geometry">
            <mxPoint x="-5" as="offset" />
          </mxGeometry>
        </mxCell>
        <mxCell id="D8TYEXM2uY8Epjha6PhA-51" value="1" style="edgeLabel;html=1;align=center;verticalAlign=middle;resizable=0;points=[];" vertex="1" connectable="0" parent="D8TYEXM2uY8Epjha6PhA-49">
          <mxGeometry x="0.6183" relative="1" as="geometry">
            <mxPoint as="offset" />
          </mxGeometry>
        </mxCell>
      </root>
    </mxGraphModel>
  </diagram>
</mxfile>
